<svg width="1117" height="330" viewBox="0 0 1117 330" fill="none" xmlns="http://www.w3.org/2000/svg">
<rect x="754" y="26" width="67" height="296" fill="#F85027"/>
<rect x="81" y="83" width="65" height="239" fill="#F85027"/>
<path d="M285.847 324.451L255.648 34.8771L306.622 29.6454L336.692 322.632L285.847 324.451Z" fill="white" stroke="#F85027" stroke-width="3"/>
<rect x="373" y="61" width="207" height="261" fill="#2B408F"/>
<rect x="933" y="26" width="83" height="296" fill="#F85027"/>
<rect x="1024" y="66" width="51" height="256" fill="#2B408F"/>
<rect x="650.981" y="84.0568" width="25.3721" height="243.331" transform="rotate(-4.97945 650.981 84.0568)" fill="white" stroke="#2B408F" stroke-width="3"/>
<rect x="17.5" y="29.5" width="65" height="293" fill="white" stroke="#2B408F" stroke-width="3"/>
<rect x="888" width="37" height="322" fill="#060606"/>
<rect x="187" width="55" height="322" fill="#2B408F"/>
<rect x="724" y="61" width="21" height="261" fill="#2B408F"/>
<rect x="622.449" y="57.9351" width="17.8543" height="267.975" transform="rotate(6.79774 622.449 57.9351)" fill="#2B408F"/>
<rect x="708" y="43" width="16" height="279" fill="#F85027"/>
<rect x="158" y="43" width="17" height="279" fill="#060606"/>
<rect x="1075" y="43" width="25" height="279" fill="#F85027"/>
<rect x="760" y="61" width="54" height="66" fill="#060606"/>
<rect x="90" y="105" width="49" height="65" fill="#2B408F"/>
<rect x="888" y="61" width="37" height="66" fill="#2B408F"/>
<rect x="187" y="61" width="55" height="66" fill="#2B408F"/>
<rect x="724" y="61" width="21" height="66" fill="#060606"/>
<rect y="320" width="1117" height="8" fill="#060606"/>
<ellipse cx="974.5" cy="90" rx="28.5" ry="29" fill="#2B408F"/>
<ellipse cx="49.5" cy="90" rx="26.5" ry="26" fill="#F85027"/>
</svg>
