<svg width="121" height="48" viewBox="0 0 121 48" fill="none" xmlns="http://www.w3.org/2000/svg">
<path d="M8.39681 0H12.5806V20.48H8.39681V12.1417H4.18378V20.48H0V0H4.18378V8.19201H8.39681V0Z" fill="#060606"/>
<path d="M20.3545 16.5303H27.0544V20.48H16.2V0H26.7619V3.94972H20.3545V8.19201H26.1767V11.9954H20.3545V16.5303Z" fill="#060606"/>
<path d="M38.7799 20.48L35.5031 13.6046H34.0403V20.48H29.8857V0H35.8249C39.8917 0 42.2908 2.51612 42.2908 6.81692C42.2908 9.59635 41.2668 11.6444 39.4528 12.7269L43.3148 20.48H38.7799ZM34.0403 3.94972V9.65487H35.7664C37.2293 9.65487 38.0192 8.66012 38.0192 6.81692C38.0192 4.94446 37.2293 3.94972 35.7664 3.94972H34.0403Z" fill="#060606"/>
<path d="M43.8521 20.48V17.7006L50.3472 3.94972H44.3495V0H55.438V2.8672L49.0014 16.5303H55.5843V20.48H43.8521Z" fill="#060606"/>
<path d="M62.0974 16.5303H68.7973V20.48H57.9429V0H68.5047V3.94972H62.0974V8.19201H67.9196V11.9954H62.0974V16.5303Z" fill="#060606"/>
<path d="M71.6286 20.48V0H75.7246L79.6158 8.89418C80.1132 10.1815 80.5813 11.5273 81.0787 12.8146L81.1665 12.7269C80.8154 10.1522 80.5813 6.64138 80.5813 4.73966V0H84.6773V20.48H80.5813L77.129 12.5513L75.2858 7.54835L75.198 7.63612C75.5198 10.2108 75.7246 14.0434 75.7246 16.3255V20.48H71.6286Z" fill="#060606"/>
<path d="M38.2384 46.4864L34.5228 38.7332L33.3817 40.5764V46.4864H29.2857V26.0064H33.3817V33.8473L34.435 31.5652L37.3022 26.0064H42.0419L36.8341 34.9591L42.9196 46.4864H38.2384Z" fill="#060606"/>
<path d="M52.8826 26.0064H57.0663V46.4864H52.8826V38.1481H48.6695V46.4864H44.4858V26.0064H48.6695V34.1984H52.8826V26.0064Z" fill="#060606"/>
<path d="M60.6858 46.4864V26.0064H64.7233V30.746C64.7233 32.6478 64.5185 36.1586 64.1966 38.7332L64.2844 38.821C64.7818 37.5337 65.2206 36.1586 65.7765 34.9006L69.6677 26.0064H73.7345V46.4864H69.697V42.3319C69.697 40.0498 69.8725 36.2171 70.1651 33.6425L70.0773 33.5547C69.4629 35.2224 68.907 36.9193 68.2049 38.5577L64.7525 46.4864H60.6858Z" fill="#060606"/>
<path d="M87.6993 26.0064V29.9561H81.526V46.4864H77.3715V26.0064H87.6993Z" fill="#060606"/>
<path d="M89.9429 46.4864V26.0064H93.9804V30.746C93.9804 32.6478 93.7756 36.1586 93.4538 38.7332L93.5416 38.821C94.0389 37.5337 94.4778 36.1586 95.0337 34.9006L98.9249 26.0064H102.992V46.4864H98.9541V42.3319C98.9541 40.0498 99.1297 36.2171 99.4223 33.6425L99.3345 33.5547C98.7201 35.2224 98.1642 36.9193 97.462 38.5577L94.0097 46.4864H89.9429Z" fill="#060606"/>
<path d="M107.413 0.650146H120.091V47.1365L113.752 43.8385L107.413 47.1365V0.650146Z" fill="#2B408F"/>
<circle cx="13.1395" cy="35.1085" r="11.3778" fill="#F85027"/>
</svg>
