<svg width="240" height="94" viewBox="0 0 240 94" fill="none" xmlns="http://www.w3.org/2000/svg">
<path d="M16.745 0H25.0883V40.8415H16.745V24.2132H8.34333V40.8415H0V0H8.34333V16.3366H16.745V0Z" fill="white"/>
<path d="M40.5912 32.9649H53.9522V40.8415H32.3062V0H53.3688V7.87657H40.5912V16.3366H52.2019V23.9214H40.5912V32.9649Z" fill="white"/>
<path d="M77.3353 40.8415L70.8007 27.1304H67.8834V40.8415H59.5985V0H71.4425C79.5524 0 84.3367 5.01767 84.3367 13.5944C84.3367 19.1371 82.2946 23.2213 78.6773 25.3801L86.3788 40.8415H77.3353ZM67.8834 7.87657V19.2538H71.3258C74.243 19.2538 75.8184 17.2701 75.8184 13.5944C75.8184 9.8603 74.243 7.87657 71.3258 7.87657H67.8834Z" fill="white"/>
<path d="M87.4504 40.8415V35.2987L100.403 7.87657H88.4423V0H110.555V5.7178L97.7191 32.9649H110.847V40.8415H87.4504Z" fill="white"/>
<path d="M123.835 32.9649H137.196V40.8415H115.55V0H136.613V7.87657H123.835V16.3366H135.446V23.9214H123.835V32.9649Z" fill="white"/>
<path d="M142.843 40.8415V0H151.011L158.771 17.7369C159.763 20.304 160.696 22.9879 161.688 25.5551L161.863 25.3801C161.163 20.2457 160.696 13.2443 160.696 9.45188V0H168.864V40.8415H160.696L153.811 25.03L150.136 15.053L149.961 15.228C150.602 20.3624 151.011 28.0056 151.011 32.5565V40.8415H142.843Z" fill="white"/>
<path d="M76.2555 92.7037L68.8457 77.2422L66.5702 80.918V92.7037H58.4019V51.8622H66.5702V67.4986L68.6706 62.9477L74.3885 51.8622H83.8403L73.4549 69.7157L85.5907 92.7037H76.2555Z" fill="white"/>
<path d="M105.459 51.8622H113.802V92.7037H105.459V76.0753H97.0573V92.7037H88.714V51.8622H97.0573V68.1988H105.459V51.8622Z" fill="white"/>
<path d="M121.02 92.7037V51.8622H129.072V61.3141C129.072 65.1065 128.663 72.1079 128.022 77.2422L128.197 77.4173C129.188 74.8501 130.064 72.1079 131.172 69.5991L138.932 51.8622H147.042V92.7037H138.99V84.4187C138.99 79.8678 139.341 72.2246 139.924 67.0902L139.749 66.9152C138.524 70.2408 137.415 73.6249 136.015 76.8922L129.13 92.7037H121.02Z" fill="white"/>
<path d="M174.891 51.8622V59.7388H162.58V92.7037H154.295V51.8622H174.891Z" fill="white"/>
<path d="M179.365 92.7037V51.8622H187.417V61.3141C187.417 65.1065 187.008 72.1079 186.367 77.2422L186.542 77.4173C187.533 74.8501 188.409 72.1079 189.517 69.5991L197.277 51.8622H205.387V92.7037H197.335V84.4187C197.335 79.8678 197.685 72.2246 198.269 67.0902L198.094 66.9152C196.869 70.2408 195.76 73.6249 194.36 76.8922L187.475 92.7037H179.365Z" fill="white"/>
<path d="M214.204 1.2963H239.486V93.9999L226.845 87.423L214.204 93.9999V1.2963Z" fill="white"/>
<circle cx="26.2034" cy="70.014" r="22.6897" fill="white"/>
</svg>
