<svg width="253" height="192" viewBox="0 0 253 192" fill="none" xmlns="http://www.w3.org/2000/svg">
<circle cx="102.5" cy="128.5" r="62.5" fill="#EFF2F5" stroke="#060606" stroke-width="2"/>
<path d="M86.4541 0.098256C89.8351 -0.0152122 93.2286 0.0347565 96.6104 0.0402711C98.5361 0.0433627 100.63 -0.102357 102.533 0.142293C102.889 0.187998 103.199 0.446436 103.478 0.65733L103.581 0.737289L103.799 0.635101C103.872 0.601762 104.027 0.536342 104.096 0.498324C105.179 -0.100935 109.236 0.541353 110.75 0.554639C120.29 0.63786 129.799 0.576364 139.339 0.900559C153.82 1.3927 168.298 2.32936 182.786 2.5842C184.398 2.61261 185.992 2.75081 187.545 3.21078C191.242 4.30578 198.239 8.20054 200.902 10.9625C201.042 15.6547 199.272 22.3408 198.43 27.0587C197.419 32.7271 196.623 38.4255 195.562 44.0856C194.268 50.9772 192.708 57.8563 191.653 64.7864C194.071 69.2441 198.135 73.2422 201.38 77.1343C207.729 74.1012 223.641 61.4141 229.537 61.943C231.626 62.131 233.871 63.6776 235.176 65.2585C236.477 66.8352 237.006 68.8823 236.783 70.9069C236.477 73.6759 234.866 75.8583 232.749 77.5612C228.649 80.8575 223.922 83.2714 219.426 85.9627C215.776 88.1494 210.96 91.4899 207.042 92.8803C204.963 93.6172 202.791 93.7827 200.608 93.5278C195.767 92.963 192.39 90.4304 189.451 86.7356C187.465 91.4774 187.196 97.1015 186.369 102.147C185.889 105.074 185.205 107.961 184.691 110.881C184.11 114.184 183.793 117.289 182.285 120.336C178.64 120.401 174.922 120.483 171.283 120.276C167.992 120.09 164.708 119.665 161.412 119.565C154.253 119.351 147.053 119.838 139.956 118.592C138.041 120.268 136.122 121.936 133.981 123.321C125.804 128.61 113.248 132.389 104.047 136.111C101.949 136.959 99.9722 138.563 97.8644 139.228C94.3364 140.341 89.3781 140.076 85.6179 140.385C84.4165 140.483 82.8192 141.244 81.668 140.92C78.2453 139.961 71.0372 131.434 69.2575 128.233C68.3437 126.509 67.4739 124.725 66.317 123.15C63.0909 123.963 60.0129 125.432 56.8884 126.578C53.9177 127.668 50.7874 128.498 47.9328 129.864C47.8031 130.763 47.7109 131.84 47.1213 132.571C46.1094 133.825 36.7167 134.3 34.4325 134.617C33.3229 133.566 32.4508 132.12 31.456 130.939C29.7549 128.919 27.9014 127.026 26.263 124.954C23.2232 121.11 14.3833 105.092 15.1517 100.415C15.2657 99.7218 15.8742 99.0049 16.4643 98.6564C18.6323 97.3781 22.5746 98.5729 24.8392 99.1979C33.4257 101.566 38.5216 106.817 42.8143 114.34C45.1437 113.203 47.8036 112.488 50.2496 111.625C56.2312 109.513 62.3978 106.95 68.668 105.928C68.2125 105.074 67.8305 104.163 67.4203 103.285C68.0424 100.201 68.2318 97.0104 68.7304 93.9005C69.7912 87.282 71.0355 80.6569 71.9779 74.026C70.7623 74.3577 69.5377 74.7153 68.2983 74.9476C62.5464 76.0263 58.1488 72.1368 53.7198 69.0854C49.9865 69.7396 42.3239 71.8886 39.0358 71.6263C38.537 71.5862 38.094 71.1333 37.5721 71.0965C37.0809 71.0623 36.6609 71.5302 36.1911 71.5385C34.9725 71.5603 33.6281 71.2311 32.4096 71.0798C27.5611 70.4757 19.0546 69.5382 15.5368 65.9479L15.3627 61.4442C14.6545 61.3038 13.9512 61.142 13.2527 60.9588C8.38002 59.6687 4.46188 57.0634 1.93196 52.6224C-0.343324 48.6293 -0.444577 43.5492 0.77598 39.2018C2.69395 32.3711 8.75764 29.4734 14.397 26.273C14.9936 25.3024 15.4621 24.2194 15.9698 23.1983C23.3931 20.8724 34.9639 20.6496 42.823 20.9668C47.7973 21.1676 56.167 22.4076 59.67 26.2072C59.8771 29.5152 59.6113 32.9201 59.4717 36.228C59.2234 42.1145 58.8933 48.0737 58.8396 53.9602C61.0712 55.1608 63.1942 56.8052 65.2907 58.2382C67.4487 57.1937 73.5694 53.5207 74.7715 51.6198C76.0798 49.5509 76.4098 43.2567 76.9169 40.4292C78.1341 33.6353 79.6947 26.9702 81.1684 20.2354C82.1626 15.6885 84.1801 3.23401 86.4541 0.098256Z" fill="#060606"/>
<path d="M89.9296 116.427C89.9538 116.432 89.9772 116.438 90.0006 116.444C94.2279 117.506 98.7951 117.209 103.088 118.172C101.885 118.485 100.699 118.901 99.5136 119.276C97.0399 120.193 94.5679 120.997 91.9914 121.572C91.1702 120.534 89.2445 118.908 89.2587 117.518C89.2646 116.979 89.5779 116.8 89.9296 116.427Z" fill="#EFF2F5"/>
<path d="M138.418 109.099C139.841 109.58 141.862 109.382 143.385 109.429C147.494 109.555 161.155 109.384 163.666 111.669C163.405 111.97 163.129 111.907 162.741 111.95C157.947 112.174 153.233 112.151 148.437 111.9C146.429 111.795 138.236 111.674 137.326 110.501C137.141 110.263 137.184 110.29 137.199 110.027C137.535 109.543 137.907 109.363 138.418 109.099Z" fill="#EFF2F5"/>
<path d="M91.2077 111.465C94.7223 111.087 100.737 111.613 104.311 111.829C108.38 112.075 112.278 111.966 116.274 112.941C115.379 113.304 114.448 113.593 113.534 113.906C109.608 114.956 104.084 113.985 99.9671 113.808C97.7691 113.714 95.5694 113.767 93.3722 113.687C92.0874 113.64 90.6772 113.53 89.7565 112.535C89.688 112.001 89.7031 112.007 89.9704 111.581C90.3188 111.613 90.6864 111.677 91.0205 111.546C91.0832 111.521 91.145 111.491 91.2077 111.465Z" fill="#EFF2F5"/>
<path d="M40.1778 23.1182C44.8036 22.6664 50.7698 23.6115 54.6337 26.2813C53.4677 26.3633 52.242 26.4995 51.0764 26.4046C47.7299 26.132 42.6552 24.8078 39.3937 25.672C36.2315 25.138 26.0878 26.9225 24.0774 25.3701C25.1721 24.2083 37.8009 23.3106 40.1778 23.1182Z" fill="#EFF2F5"/>
<path d="M76.0063 106.22C76.1074 106.206 76.2085 106.193 76.3104 106.186C79.8025 105.951 82.9286 106.715 85.5978 109.108C87.0581 110.419 88.3506 112.439 88.4249 114.453C88.4475 115.067 88.3397 115.519 87.9253 115.98C87.2361 116.091 86.9537 115.877 86.3338 115.596C84.8175 114.621 83.4215 113.401 81.9712 112.325C79.1692 110.247 75.9111 108.455 72.6078 107.328C73.7415 106.823 74.769 106.394 76.0063 106.22Z" fill="#EFF2F5"/>
<path d="M139.863 113.759C141.611 113.684 143.428 113.899 145.182 113.957L155.866 114.281C159.887 114.433 164.023 114.276 168.021 114.58C169.678 114.707 172.5 115.408 173.607 116.694L173.315 116.968C168.037 117.103 162.961 116.508 157.711 116.237C154.712 116.083 151.699 116.233 148.698 116.151C147.013 116.106 140.391 115.861 139.369 114.783C139.393 114.189 139.479 114.181 139.863 113.759Z" fill="#EFF2F5"/>
<path d="M88.3021 106.32C92.0557 106.78 95.8928 106.82 99.6681 107.053C102.717 107.242 105.763 107.641 108.814 107.763C113.799 107.962 118.698 107.874 123.597 108.948L121.193 109.85C120.9 109.997 120.6 110.136 120.284 110.226C117.042 111.145 109.545 109.941 105.888 109.801C101.117 109.62 96.2069 109.773 91.4634 109.281C90.2177 109.153 88.5126 108.957 87.4232 108.334C87.2294 108.223 87.257 108.064 87.2052 107.858C87.3756 107.192 87.8393 106.797 88.3021 106.32Z" fill="#EFF2F5"/>
<path d="M184.452 81.8192C185.396 82.2261 186.084 83.5245 186.63 84.3592C185.074 92.4415 183.964 100.585 182.541 108.689C182.188 110.703 182.191 113.222 181.584 115.137C181.509 115.375 181.382 115.502 181.221 115.685C180.476 115.5 179.707 115.374 179.092 114.889C179.023 114.758 178.835 114.489 178.815 114.356C178.508 112.288 181.814 96.7447 182.378 93.6665C183.099 89.7243 183.632 85.7421 184.452 81.8192Z" fill="#EFF2F5"/>
<path d="M14.6835 28.3992C14.9053 28.4346 15.0683 28.5343 15.2676 28.6338C15.4769 29.1886 15.6894 29.994 15.3221 30.533C14.9563 31.0702 13.936 31.5515 13.3686 31.925C10.0372 34.1192 6.81254 36.6718 5.78514 40.7334C4.60192 45.41 5.96191 49.5502 8.9702 53.1715C9.61773 53.9511 10.3239 54.8601 11.1676 55.4233C12.4247 56.2622 14.7255 56.512 15.4931 57.8038C15.4027 58.3553 15.3818 58.4037 14.9892 58.7998L14.3687 58.702C13.8198 58.5706 13.2754 58.4229 12.7355 58.2592C9.19793 57.1546 5.82858 55.2378 4.09691 51.8212C2.22079 48.1197 2.29815 42.4605 3.61529 38.6011C5.31304 33.627 10.1705 30.5748 14.6835 28.3992Z" fill="#EFF2F5"/>
<path d="M15.1322 33.2234C15.156 33.2501 15.183 33.2735 15.2038 33.3028C15.882 34.2495 15.4933 51.7493 15.3333 54.1523C13.7006 53.5391 12.2945 52.7578 10.8775 51.7551C10.1247 51.0524 9.37917 50.3589 8.84016 49.4724C7.50281 47.2732 7.54449 44.6755 8.13923 42.244C9.07633 38.413 11.806 35.2371 15.1322 33.2234Z" fill="#EFF2F5"/>
<path d="M196.103 12.073C196.941 12.4314 197.624 12.9502 198.35 13.4929C197.291 18.071 196.665 22.8247 195.908 27.4619C194.738 34.4556 193.608 41.4557 192.519 48.4621C191.869 52.7184 191.322 59.631 189.879 63.467C189.248 62.4351 188.219 61.6614 187.716 60.5559C187.471 60.017 187.632 59.1263 187.703 58.5539C188.045 55.8058 188.699 53.0677 189.139 50.3296C190.387 42.5071 191.717 34.6986 193.131 26.9039C194.024 22.0646 194.455 16.7147 196.103 12.073Z" fill="#EFF2F5"/>
<path d="M74.4583 55.1817L74.6346 55.3647C74.5853 58.3543 73.0272 67.9924 71.8643 70.7798C70.627 71.4675 69.1669 72.0992 67.7726 72.3774C63.874 73.1545 59.7751 70.6119 56.6622 68.5121C56.5413 68.4269 56.5119 68.2932 56.4497 68.1612C59.4214 65.032 58.8901 60.6487 58.911 56.6531C61.1429 58.1128 63.6212 59.4823 65.604 61.2637C68.3427 58.9083 71.3121 56.9414 74.4583 55.1817Z" fill="#EFF2F5"/>
<path d="M62.0661 110.355L62.3266 110.345C62.8108 110.789 64.5623 119.274 65.0189 120.81C59.1121 123.299 52.9069 124.944 47.047 127.567C45.9827 123.866 44.9168 120.206 43.6161 116.58C46.1047 115.596 48.7042 114.871 51.2368 114.007C54.8453 112.775 58.4017 111.417 62.0661 110.355Z" fill="#EFF2F5"/>
<path d="M131.585 110.153C132.684 110.009 133.59 110.136 134.55 110.689C136.235 111.66 136.844 113.223 137.326 115.016C137.168 115.697 137.021 116.424 136.706 117.052C136.001 118.456 134.798 119.493 133.487 120.315C130.483 122.194 126.956 123.36 123.72 124.79C115.686 128.338 107.526 132.09 99.2319 134.97L98.5627 135.249C97.4683 134.588 94.1525 125.926 93.5669 124.127C96.6563 123.227 99.5878 121.85 102.602 120.733L121.262 113.82C124.644 112.539 128.081 111.047 131.585 110.153Z" fill="#EFF2F5"/>
<path d="M184.213 59.9259C185.354 60.8066 186.094 62.7877 187.057 63.9407C188.748 65.9678 190.684 67.7935 192.384 69.8214C195.122 73.0842 197.604 76.6345 200.653 79.6157C204.863 77.9379 208.652 75.3293 212.507 72.9898C214.39 71.8467 216.37 70.8591 218.242 69.6994C220.433 68.3408 222.512 66.79 224.891 65.7572C226.154 65.2083 227.464 64.8507 228.847 64.8331C230.328 64.8139 232.053 65.1498 233.132 66.2452C233.879 67.0047 234.223 67.9882 234.213 69.0435C234.19 71.6387 232.547 74.0434 230.755 75.7722C228.876 77.257 226.678 78.278 224.589 79.4294C222.251 80.7379 219.92 82.0606 217.598 83.3974C213.852 85.544 210.197 88.2044 206.243 89.9123C204.583 90.6292 202.887 91.1648 201.055 91.062C193.626 90.6459 185.896 79.3575 181.218 74.0743C181.181 69.559 182.207 63.9834 184.213 59.9259Z" fill="#EFF2F5"/>
<path d="M219.234 97.5014L203.657 73.2703L230.773 58.2701L246.35 73.2703L219.234 97.5014Z" fill="#EFF2F5"/>
<path d="M56.8752 28.4899L57.0397 28.5434C57.4556 29.2035 56.4406 61.9154 56.2814 65.2292C56.0371 65.3518 55.7889 65.466 55.5367 65.5718C45.1617 69.9317 27.6554 69.2081 17.4837 65.0295C17.9894 63.6584 17.311 60.4073 17.3314 58.7671L17.8363 28.52C23.0779 30.4142 27.816 30.6816 33.3172 31.0467C36.0593 31.228 38.7971 31.6316 41.5452 31.6968C46.6049 31.8163 52.2639 30.5421 56.8752 28.4899Z" fill="#EFF2F5"/>
<path d="M179.299 6.73408C181.052 6.69197 182.845 6.61777 184.592 6.77837C187.647 7.05911 191.341 8.50479 193.355 10.907C193.556 13.7185 192.958 16.3953 192.533 19.1566C191.582 25.3241 190.268 31.4136 189.252 37.5691C188.558 41.7786 187.463 52.2607 186.103 55.7257C185.878 56.2972 185.719 56.4627 185.172 56.695C184.853 56.6122 184.482 56.4877 184.154 56.4677C183.798 56.4451 183.56 56.4969 183.285 56.7217C182.483 57.3759 182.1 58.6852 181.743 59.6386C181.295 60.8151 180.904 62.0102 180.571 63.224C180.238 64.4378 179.963 65.6646 179.747 66.9046C179.531 68.1445 179.376 69.3923 179.28 70.6479C179.184 71.9029 179.148 73.1595 179.172 74.4179C179.185 75.515 179.882 76.5853 179.78 77.5328C179.619 77.7183 179.427 77.9189 179.308 78.1344C179.216 78.3041 179.122 78.604 179.184 78.7845C179.543 79.8314 180.942 80.3712 181.848 80.8416C181.887 85.3737 179.902 95.0577 179.047 99.7828C178.423 103.233 177.987 106.728 177.252 110.155C177.091 111.405 176.733 112.65 176.443 113.875C173.394 112.26 165.378 108.229 162.424 107.482C162.451 104.112 163.274 100.719 163.856 97.4056C164.439 94.0943 164.929 90.7705 165.462 87.4509L173.508 39.2043L176.516 21.6628C177.141 17.8026 177.856 10.0265 179.299 6.73408Z" fill="#EFF2F5"/>
<path d="M87.4867 3.35907C88.5594 3.6257 89.4642 3.77726 90.5653 3.77066C93.658 3.75203 96.7157 4.13388 99.8034 4.19738C104.053 4.28469 108.331 4.0967 112.574 4.33266C115.626 4.50244 118.661 4.94311 121.717 5.029C131.116 5.29304 140.547 4.84443 149.949 5.0504C153.272 5.12318 156.575 5.65291 159.899 5.78092C163.216 5.90868 174.405 5.41629 176.424 7.4085C176.592 7.7098 176.63 7.88852 176.618 8.23294C176.49 12.035 175.341 15.8846 174.688 19.6241L170.614 43.2919C167.067 63.8022 164.259 84.432 160.527 104.912C160.364 105.807 160.214 107.082 159.548 107.708C155.484 107.125 151.461 107.096 147.371 106.901L128.972 106.044C124.627 105.834 120.328 104.886 115.981 104.584C111.483 104.272 106.922 104.56 102.411 104.472C99.501 104.415 96.6171 104.013 93.7132 103.916C85.8276 103.656 77.9704 103.895 70.1266 102.928C70.7607 93.1602 72.9152 83.6132 74.3522 73.9609C76.688 57.1907 79.5984 40.5208 83.0832 23.9511L85.6697 11.5362C86.2344 8.80596 86.6655 6.02724 87.4867 3.35907Z" fill="#EFF2F5"/>
<path d="M117.904 62.3759C118.034 62.3433 118.066 62.3324 118.218 62.3149C121.017 62.0007 128.179 62.6725 130.291 64.5525C130.74 64.9535 130.783 65.1491 130.811 65.7081C130.705 65.8727 130.612 66.0239 130.458 66.1509C128.825 67.5037 124.947 66.6489 123.002 66.4124C121.53 66.191 120.068 66.0063 118.581 65.942C116.957 65.8718 111.069 66.5202 109.997 65.5201C109.815 64.9552 109.784 64.8616 109.932 64.2926C111.269 62.6691 115.844 62.6223 117.904 62.3759Z" fill="#060606"/>
<path d="M105.496 31.2289C109.818 30.7017 114.602 31.5982 118.293 33.9169C120.91 35.5612 122.214 37.1396 122.873 40.115C122.753 40.5671 122.629 41.0274 122.453 41.4611C120.451 46.4159 114.013 46.9114 110.002 49.373C107.988 50.6096 106.961 52.5932 104.638 53.5073C104.462 53.5613 104.284 53.6053 104.102 53.6393C101.19 54.1974 97.0891 53.4145 94.6463 51.7952C92.9446 50.6681 91.0682 48.3436 90.8309 46.2271C90.7699 45.6806 91.2587 45.0849 90.9913 44.7131C90.1175 43.4982 87.9195 42.7387 87.6839 41.0734C87.5803 40.3389 87.9011 39.6037 88.333 39.028C91.1175 35.3156 100.833 31.8765 105.496 31.2289Z" fill="#060606"/>
<path d="M248.111 67.2164L247.933 67.4302C246.062 69.6105 243.141 70.8806 240.363 71.8624C238.929 72.3691 237.389 72.8451 236.048 73.2969C235.286 73.5533 234.567 73.8098 233.902 74.0762C234.275 74.4514 234.679 74.8453 235.111 75.2882C235.956 76.1539 236.869 77.1821 237.403 78.4143L237.513 78.6953C237.613 78.9827 237.677 79.2911 237.671 79.6317C237.663 80.0702 237.538 80.4527 237.408 80.7786L237.295 81.0611L237.066 81.2601C236.742 81.5406 236.381 81.7984 235.793 81.9227L235.587 81.9606C233.473 82.3009 231.585 80.9684 230.213 79.7693C229.463 79.1135 228.745 78.3841 228.116 77.7541C227.755 77.3934 227.428 77.0725 227.13 76.7966C225.392 78.0589 222.733 80.3281 219.96 82.664C217.038 85.1248 213.956 87.6873 211.982 88.8769L211.601 89.0958L211.005 89.4228L210.407 89.1004C209.29 88.498 208.674 87.3302 208.277 86.27C207.867 85.1742 207.581 83.8766 207.318 82.706C207.043 81.4857 206.789 80.3932 206.446 79.5252C206.089 78.6238 205.745 78.2576 205.48 78.1364L203.293 77.1364L205.369 75.9206C207.106 74.904 209.336 73.9288 211.479 72.9985C213.39 72.1693 215.234 71.3755 216.742 70.5864L217.368 70.2484C219.367 69.1283 221.262 68.1649 222.952 66.8834C223.347 65.6943 223.637 64.4706 223.987 63.1593L223.992 63.1432L224.039 62.974L224.04 62.9697C224.769 60.4229 225.868 57.3522 227.395 54.5348C228.817 51.9109 230.666 49.4049 233.023 47.7899L233.501 47.479C233.931 47.2146 234.862 46.5736 236.043 46.8678L236.429 46.964L236.687 47.2659L236.843 47.4641C237.565 48.4764 237.491 49.8062 237.299 50.8563C237.078 52.0614 236.601 53.4086 236.118 54.6602C235.617 55.9631 235.121 57.1388 234.764 58.1822C234.697 58.3766 234.639 58.5594 234.588 58.7292C234.694 58.6818 234.806 58.6293 234.925 58.5725C235.919 58.0955 237.116 57.4023 238.462 56.6543C239.774 55.9246 241.205 55.1575 242.557 54.613C243.781 54.12 245.132 53.7265 246.353 53.8527L246.595 53.8851C246.787 53.9166 247.19 53.9891 247.537 54.3112C247.694 54.4568 247.791 54.6085 247.845 54.7004C247.891 54.7791 247.943 54.8806 247.963 54.9186L248.134 55.2436L248.102 55.611C248.038 56.3345 247.681 56.9771 247.284 57.5015C246.877 58.0407 246.341 58.5671 245.754 59.0684C244.579 60.0709 243.051 61.0961 241.532 62.0594C239.934 63.0725 238.503 63.9205 237.163 64.7801C236.639 65.116 236.173 65.4287 235.778 65.7124C236.58 65.6147 237.527 65.4503 238.531 65.2569C239.147 65.1381 239.774 65.011 240.391 64.8855C241.006 64.7605 241.613 64.6367 242.179 64.5271C243.14 64.3412 244.073 64.1773 244.769 64.1284L245.052 64.1146C245.328 64.1083 245.83 64.0995 246.328 64.169C246.578 64.204 246.872 64.2642 247.158 64.3773C247.438 64.4876 247.796 64.6818 248.073 65.0357L248.178 65.1867C248.396 65.5382 248.432 65.8922 248.424 66.1397C248.42 66.2641 248.404 66.3765 248.397 66.4322C248.387 66.5053 248.384 66.5206 248.383 66.5379L248.351 66.9186L248.111 67.2164Z" fill="#EFF2F5" stroke="#060606" stroke-width="2.5"/>
<path d="M104.944 33.5416C107.373 33.1322 110.718 33.2007 113.062 33.8633C116.669 34.8827 119.161 37.0802 120.943 40.3046C120.725 40.5714 120.499 40.8321 120.267 41.0867C117.037 44.6127 111.582 45.9955 106.997 46.2011C98.9011 46.3356 96.9963 44.8015 90.3213 40.5436C94.4817 36.9991 99.4491 34.1933 104.944 33.5416Z" fill="#EFF2F5"/>
<path d="M146.369 31.8714C148.266 31.7185 150.309 31.9792 152.137 32.4755C158.162 34.1124 162.951 38.9477 165.972 44.2435C165.614 44.9804 165.178 45.7333 164.662 46.3708C161.188 50.6655 154.935 50.841 149.894 51.3206C149.19 52.7928 148.304 53.4847 146.97 54.3979C146.426 54.6843 145.854 54.8979 145.256 55.0388C142.697 55.6187 139.482 55.6563 137.201 54.2074C134.756 52.6541 133.679 50.0222 133.07 47.3158C132.147 46.8755 131.215 46.4368 130.367 45.8603C129.404 45.2035 128.504 44.2836 128.325 43.0829C128.167 42.0251 128.653 41.0826 129.302 40.2896C133.032 35.7275 140.602 32.4805 146.369 31.8714Z" fill="#060606"/>
<path d="M144.75 35.2012C146.841 34.903 149.399 34.9581 151.462 35.3792C156.337 36.376 160.772 40.0926 163.473 44.1392C159.559 47.2875 154.725 48.2919 149.794 48.3236C145.04 48.2467 138.43 47.6986 134.244 45.3691C132.902 44.623 131.74 43.5275 130.584 42.5291C134.378 39.1685 139.657 35.8981 144.75 35.2012Z" fill="#EFF2F5"/>
<path d="M208.157 76.1108C207.24 76.0039 201.018 79.3647 197.959 80.6983C200.533 83.5331 204.23 90.6816 206.181 89.8948C208.025 89.1509 210.846 88.3035 212.402 87.2879C212.544 87.1949 212.569 87.001 212.473 86.8602C210.686 84.2254 209.044 76.214 208.157 76.1108Z" fill="#EFF2F5"/>
</svg>
