<svg width="114" height="111" viewBox="0 0 114 111" fill="none" xmlns="http://www.w3.org/2000/svg">
<path fill-rule="evenodd" clip-rule="evenodd" d="M90.6295 0.515495C90.5345 0.581495 74.9315 0.966491 55.9565 1.37049C8.97854 2.37049 4.40053 2.5865 1.91253 3.9185C-0.247467 5.0745 -0.248454 5.09049 0.319546 34.4695L0.888546 63.8655L4.98654 71.3315L9.08453 78.7985L23.1866 78.5965C37.7585 78.3875 41.1576 79.3255 35.0276 81.8655C30.3996 83.7815 29.4136 85.4435 30.9886 88.6745C31.7176 90.1705 32.3645 91.6195 32.4275 91.8945C32.4895 92.1695 33.3205 93.8575 34.2745 95.6445L36.0075 98.8945L32.2325 98.9095C26.7055 98.9305 23.4665 100.88 23.4095 104.219C23.3835 105.741 23.9285 107.456 24.6195 108.03C26.3005 109.425 67.0425 111.199 78.5545 110.379C92.6195 109.376 95.8785 106.856 88.9985 102.303L84.9125 99.5995L87.6845 97.8805C91.7975 95.3285 95.2835 91.1895 94.6685 89.5875C93.8296 87.3985 88.1865 86.6995 84.5995 88.3385C79.9245 90.4765 77.7245 90.5475 75.0165 88.6505C73.6755 87.7095 72.7755 86.7595 73.0165 86.5375C74.7155 84.9825 89.3085 78.7285 91.9565 78.4215C92.2315 78.3895 92.9705 78.0365 93.5985 77.6365C94.2275 77.2365 99.0645 76.8645 104.349 76.8085L113.957 76.7075V68.5515C113.956 50.2415 111.808 8.3785 110.852 8.0435C110.301 7.8505 108.208 5.91749 106.201 3.74749C102.656 -0.0835099 102.382 -0.188504 96.6765 0.0984957C93.4455 0.261496 90.7245 0.448495 90.6295 0.515495ZM79.6595 3.49749C79.5475 3.59449 63.4815 3.99849 43.9565 4.39449C24.4315 4.79149 8.27953 5.27949 8.06353 5.48049C7.84853 5.68149 8.18755 6.46849 8.81955 7.22849C9.76055 8.36249 15.2315 8.55149 39.2115 8.27449C55.2965 8.08949 76.6425 7.65549 86.6485 7.30949C104.2 6.70449 104.8 6.61549 103.654 4.78149C102.587 3.07149 101.325 2.90249 91.1646 3.10049C84.9485 3.22149 79.7715 3.40049 79.6595 3.49749ZM3.30154 35.4915L3.84655 64.0895L6.88653 68.7415L9.92755 73.3945L9.38653 49.3945C8.49653 9.89349 8.50555 10.0225 6.35855 8.39749C5.31255 7.60549 4.07353 6.94349 3.60653 6.92649C3.13853 6.90849 3.00154 19.7635 3.30154 35.4915ZM59.6185 10.5655C59.5245 10.6605 48.5565 10.8595 35.2465 11.0085L11.0455 11.2805L11.4846 18.3375C11.8166 23.6585 12.6816 57.2935 12.9366 74.7835C12.9536 75.9525 17.8115 76.0645 43.7065 75.4915C60.6195 75.1165 77.8315 74.6635 81.9565 74.4855C86.0815 74.3075 94.4065 74.1015 100.457 74.0285L111.457 73.8965L110.762 52.1455C110.38 40.1825 109.843 26.5695 109.57 21.8945C109.297 17.2195 109.047 12.5725 109.015 11.5675C108.96 9.84149 107.614 9.75949 84.3735 10.0675C70.8535 10.2475 59.7135 10.4715 59.6185 10.5655ZM26.6885 31.4305C21.6385 34.8625 21.4435 39.4435 26.1795 43.4285C29.2995 46.0535 29.7065 46.1255 38.9295 45.6685C46.2465 45.3065 49.6165 44.6405 53.4565 42.7955C59.3925 39.9445 60.2255 37.4355 56.4785 33.6895C53.2475 30.4575 47.1395 28.8945 37.7455 28.8945C31.5525 28.8945 29.8445 29.2865 26.6885 31.4305ZM68.8546 31.1785C63.4576 34.8075 63.6245 41.6375 69.1815 44.5105C73.5256 46.7575 88.4765 45.9175 95.1155 43.0535C101.16 40.4455 102.134 37.7325 98.4185 33.8545C95.1945 30.4895 88.9665 28.8945 79.0555 28.8945C73.6285 28.8945 71.5646 29.3565 68.8546 31.1785ZM34.1875 31.9375C27.8735 32.8285 25.9565 34.2175 25.9565 37.9035C25.9565 41.9865 30.9855 44.1315 38.6495 43.3175C41.8435 42.9775 44.7175 42.5395 45.0365 42.3435C45.6145 41.9875 45.3745 32.9285 44.7735 32.4355C43.6745 31.5355 38.6995 31.3015 34.1875 31.9375ZM76.7195 31.9595C69.9165 32.7515 67.9565 34.1185 67.9565 38.0675C67.9565 42.2515 73.0795 44.3085 81.1635 43.3705L87.0535 42.6865L86.7556 37.6505C86.3986 31.6345 85.2245 30.9685 76.7195 31.9595ZM56.4565 52.8125C51.2325 54.2565 47.9565 55.8115 47.9565 56.8465C47.9565 57.3975 49.1565 58.6345 50.6225 59.5955C54.5445 62.1645 72.3726 62.1545 76.3076 59.5805C77.8326 58.5835 78.9055 57.2335 78.6925 56.5805C77.7585 53.7305 62.4925 51.1425 56.4565 52.8125ZM54.0836 56.2185L51.7105 57.5965L54.0836 58.2315C57.5876 59.1695 72.2405 59.0005 73.8135 58.0045C76.2115 56.4845 73.0875 55.5375 64.4935 55.1765C58.9415 54.9435 55.7226 55.2655 54.0836 56.2185ZM46.7065 78.7045C44.6445 78.8755 42.9565 79.2325 42.9565 79.4985C42.9565 79.7635 46.5055 84.1245 50.8425 89.1875C56.8245 96.1705 60.1005 99.0845 64.4045 101.251L70.0795 104.108L76.2675 101.049C93.8515 92.3585 97.5295 86.4825 82.0385 91.8305C75.4725 94.0975 75.2155 93.9675 67.9895 84.7545L62.5215 77.7845L56.4895 78.0895C53.1715 78.2575 48.7695 78.5345 46.7065 78.7045ZM74.7065 78.6365C70.9945 78.8285 67.9665 79.3025 67.9785 79.6905C67.9905 80.0775 68.7785 81.3245 69.7285 82.4615L71.4565 84.5285L77.4565 81.2395C80.7565 79.4305 83.0065 78.0265 82.4565 78.1185C81.9065 78.2105 78.4185 78.4435 74.7065 78.6365ZM35.2265 84.6665L32.9965 86.3945L35.4015 91.3945C39.7375 100.409 46.9505 104.92 47.7765 99.1325C47.9525 97.8995 48.9855 96.4145 50.0735 95.8325C51.9295 94.8385 51.7365 94.4115 46.9045 88.8345C41.3925 82.4725 39.1105 81.6575 35.2265 84.6665ZM50.9565 98.3945C49.8935 99.6755 50.1855 99.8945 52.9565 99.8945C55.7275 99.8945 56.0195 99.6755 54.9565 98.3945C54.2715 97.5695 53.3715 96.8945 52.9565 96.8945C52.5415 96.8945 51.6415 97.5695 50.9565 98.3945Z" fill="black"/>
</svg>
